<svg xmlns="http://www.w3.org/2000/svg" viewBox="0 0 502.632 502.632">
    <path d="m240.86 269.89c0 0-28.02-53.992-26.985-93.44.755-28.19 64.32-56.06 89.28-96.53 24.914-40.489-3.106-79.92-3.106-79.92s6.234 29.08-10.376 59.15c-16.609 30.11-77.914 47.779-101.75 99.68s52.935 111.07 52.935 111.07" />
    <path d="m345.74 105.87c0 0-95.49 36.35-95.49 77.849 0 41.545 25.928 55.03 30.11 68.51 4.142 13.525-7.269 36.35-7.269 36.35s37.36-25.95 31.11-56.06c-6.234-30.11-35.29-39.475-18.659-69.54 11.11-20.17 60.2-57.1 60.2-57.1" />
    <path d="m230.51 324.75c88.25-3.149 120.43-30.997 120.43-30.997-57.08 15.553-208.65 14.539-209.71 3.128-1.014-11.411 46.701-20.773 46.701-20.773s-74.72 0-80.955 18.68c-6.235 18.681 35.35 33.05 123.54 29.962" />
    <path d="m358.19 368.49c0 0 86.37-18.421 77.83-65.34-10.354-57.12-70.58-24.936-70.58-24.936s42.602 0 46.722 25.928c4.164 25.95-53.969 64.35-53.969 64.35" />
    <path d="m315.63 343.6c0 0-21.765 5.716-54.01 9.34-43.23 4.853-95.49 1.014-99.66-6.256-4.098-7.269 7.269-11.411 7.269-11.411-51.921 12.468-23.512 34.23 37.34 38.42 52.16 3.559 129.79-15.574 129.79-15.574l-20.729-14.517" />
    <path d="m181.74 388.94c0 0-23.555.669-24.936 13.14-1.359 12.382 14.496 23.512 72.65 26.964 58.13 3.451 98.99-15.898 98.99-15.898l-26.295-15.962c0 0-16.631 3.494-42.24 6.946-25.626 3.473-78.17-2.783-80.24-7.593-2.113-4.855 2.072-7.594 2.072-7.594" />
    <path d="m407.99 445c8.995-9.707-2.783-17.321-2.783-17.321s4.142 4.853-1.337 10.376c-5.544 5.522-56.08 19.349-137.06 23.512-80.955 4.163-168.86-7.615-171.64-17.99-2.696-10.376 45.02-18.659 45.02-18.659-5.522.69-71.96 2.071-74.07 20.08-2.071 17.968 29.06 32.507 153.67 32.507 124.55-.021 179.25-22.865 188.21-32.507" />
    <path d="m359.57 485.82c-54.682 11.04-220.73 4.077-220.73 4.077s107.92 25.626 231.11 4.185c58.888-10.268 62.32-38.763 62.32-38.763s-18.01 19.392-72.69 30.501" />
</svg>