<svg xmlns="http://www.w3.org/2000/svg" viewBox="0 0 15 16">
    <path d="m3.92 11.348l-2.286 2.286q-.089.08-.205.08-.107 0-.205-.08-.08-.089-.08-.205t.08-.205l2.286-2.286q.089-.08.205-.08t.205.08q.08.089.08.205t-.08.205m1.509.366v2.857q0 .125-.08.205t-.205.08-.205-.08-.08-.205v-2.857q0-.125.08-.205t.205-.08.205.08.08.205m-2-2q0 .125-.08.205t-.205.08h-2.857q-.125 0-.205-.08t-.08-.205.08-.205.205-.08h2.857q.125 0 .205.08t.08.205m11.285 1.143q0 1.071-.759 1.813l-1.313 1.304q-.741.741-1.813.741-1.08 0-1.821-.759l-2.982-2.991q-.188-.188-.375-.5l2.134-.161 2.438 2.446q.241.241.607.246t.607-.237l1.313-1.304q.25-.25.25-.598 0-.357-.25-.607l-2.446-2.455.161-2.134q.313.188.5.375l3 3q.75.768.75 1.821m-5.51-6.464l-2.134.161-2.438-2.446q-.25-.25-.607-.25-.348 0-.607.241l-1.313 1.304q-.25.25-.25.598 0 .357.25.607l2.446 2.446-.161 2.143q-.313-.188-.5-.375l-3-3q-.75-.768-.75-1.821 0-1.071.759-1.813l1.313-1.304q.741-.741 1.813-.741 1.08 0 1.821.759l2.982 2.991q.188.188.375.5m5.653.75q0 .125-.08.205t-.205.08h-2.857q-.125 0-.205-.08t-.08-.205.08-.205.205-.08h2.857q.125 0 .205.08t.08.205m-4.857-4.857v2.857q0 .125-.08.205t-.205.08-.205-.08-.08-.205v-2.857q0-.125.08-.205t.205-.08.205.08.08.205m3.634 1.348l-2.286 2.286q-.098.08-.205.08t-.205-.08q-.08-.089-.08-.205t.08-.205l2.286-2.286q.089-.08.205-.08t.205.08q.08.089.08.205t-.08.205" />
</svg>