<svg xmlns="http://www.w3.org/2000/svg" viewBox="0 0 16 16">
    <path d="m14.59 9.535c-.839-1.454-.335-3.317 1.127-4.164l-1.572-2.723c-.449.263-.972.414-1.529.414-1.68 0-3.042-1.371-3.042-3.062h-3.145c.004.522-.126 1.051-.406 1.535-.839 1.454-2.706 1.948-4.17 1.106l-1.572 2.723c.453.257.845.634 1.123 1.117.838 1.452.336 3.311-1.12 4.16l1.572 2.723c.448-.261.967-.41 1.522-.41 1.675 0 3.03 1.362 3.042 3.046h3.145c-.0001-.517.129-1.04.406-1.519.838-1.452 2.7-1.947 4.163-1.11l1.572-2.723c-.45-.257-.839-.633-1.116-1.113m-6.59 1.705c-1.789 0-3.24-1.45-3.24-3.24s1.45-3.24 3.24-3.24c1.789 0 3.24 1.45 3.24 3.24s-1.45 3.24-3.24 3.24" />
</svg>