<svg xmlns="http://www.w3.org/2000/svg" viewBox="0 0 16 16">
    <path d="m8 0c-4.418 0-8 1.119-8 2.5v1.5l6 6v5c0 .552.895 1 2 1s2-.448 2-1v-5l6-6v-1.5c0-1.381-3.582-2.5-8-2.5m-6.525 2.169c.374-.213.9-.416 1.52-.586 1.374-.376 3.152-.583 5-.583s3.631.207 5 .583c.62.17 1.146.372 1.52.586.247.141.38.26.442.331-.062.071-.195.19-.442.331-.374.213-.9.416-1.52.586-1.374.376-3.152.583-5 .583s-3.631-.207-5-.583c-.62-.17-1.146-.372-1.52-.586-.247-.141-.38-.26-.442-.331.062-.071.195-.19.442-.331" />
</svg>