<svg xmlns="http://www.w3.org/2000/svg" viewBox="0 0 16 16">
    <path d="m8 .32c-4.236 0-7.681 3.446-7.681 7.68s3.445 7.68 7.681 7.68c4.234 0 7.68-3.446 7.68-7.68s-3.446-7.68-7.68-7.68m6.55 7.68c0 1.498-.509 2.88-1.357 3.984-.24-.187-.495-.694-.255-1.218.242-.528.306-1.75.25-2.226-.053-.475-.3-1.62-.971-1.631-.67-.001-1.13-.231-1.529-1.026-.826-1.654 1.551-1.972.725-2.887-.231-.258-1.426 1.058-1.602-.695-.011-.126.108-.314.269-.509 2.595.872 4.47 3.326 4.47 6.21zm-7.45-6.486c-.157.306-.57.43-.822.659-.547.495-.782.426-1.077.902-.297.475-1.254 1.159-1.254 1.503s.483.749.725.67c.242-.08.879-.075 1.254.056.375.133 3.131.266 2.253 2.595-.278.741-1.498.616-1.823 1.842-.049.18-.218.949-.228 1.2-.02.389.275 1.854-.1 1.854-.377 0-1.39-1.311-1.39-1.549s-.262-1.07-.262-1.784c0-.713-1.214-.702-1.214-1.65 0-.854.658-1.28.51-1.69-.145-.408-1.302-.422-1.784-.472.842-2.185 2.824-3.806 5.213-4.138zm-1.161 12.702c.394-.208.434-.477.79-.49.408-.018.74-.159 1.2-.261.408-.089 1.138-.503 1.781-.556.542-.044 1.612.028 1.9.551-1.036.689-2.278 1.09-3.611 1.09-.719 0-1.412-.119-2.06-.334" />
</svg>