<svg xmlns="http://www.w3.org/2000/svg" viewBox="0 0 16 16">
    <path d="m14.207 12.585l-3.057-2.599c-.316-.285-.654-.415-.927-.402.722-.845 1.157-1.941 1.157-3.14 0-2.673-2.166-4.839-4.839-4.839s-4.839 2.166-4.839 4.839 2.166 4.839 4.839 4.839c1.198 0 2.294-.436 3.14-1.157-.013.273.118.611.402.927l2.599 3.057c.445.494 1.172.536 1.613.093s.402-1.171-.093-1.613l.003-.003m-7.665-2.916c-1.782 0-3.226-1.444-3.226-3.226s1.444-3.226 3.226-3.226 3.226 1.444 3.226 3.226-1.444 3.226-3.226 3.226" />
</svg>