<svg xmlns="http://www.w3.org/2000/svg" viewBox="0 0 16 16">
    <path d="M11.344 11.344v-6.688h-6.688v6.688h6.688zM14 7.344h-1.344v1.313h1.344v1.344h-1.344v1.344c0 0.719-0.594 1.313-1.313 1.313h-1.344v1.344h-1.344v-1.344h-1.313v1.344h-1.344v-1.344h-1.344c-0.719 0-1.313-0.594-1.313-1.313v-1.344h-1.344v-1.344h1.344v-1.313h-1.344v-1.344h1.344v-1.344c0-0.719 0.594-1.313 1.313-1.313h1.344v-1.344h1.344v1.344h1.313v-1.344h1.344v1.344h1.344c0.719 0 1.313 0.594 1.313 1.313v1.344h1.344v1.344zM8.656 8.656v-1.313h-1.313v1.313h1.313zM10 6v4h-4v-4h4z" />
</svg>