<svg xmlns="http://www.w3.org/2000/svg" viewBox="0 0 16 16">
  <path d="M 15.09375 0.6875 L 14.40625 1.375 L 12.71875 3.03125 C 11.500401 1.9489273 9.9434614 1.25 8.1875 1.25 C 4.3814708 1.25 1.28125 4.3502217 1.28125 8.15625 C 1.28125 11.962278 4.3814709 15.03125 8.1875 15.03125 C 10.255499 15.03125 12.110724 14.131222 13.375 12.6875 L 13.65625 12.375 L 13.34375 12.125 L 12.125 11.0625 L 11.8125 10.78125 L 11.5625 11.09375 C 11.49659 11.16884 11.413869 11.2424 11.34375 11.3125 C 10.496411 12.159839 9.385809 12.625 8.1875 12.625 C 6.9891911 12.625 5.8786168 12.159813 5.03125 11.3125 C 4.1839278 10.465123 3.71875 9.3545635 3.71875 8.15625 C 3.71875 6.9579369 4.1839307 5.816115 5.03125 4.96875 C 5.8786158 4.1214298 6.9891894 3.65625 8.1875 3.65625 C 9.2450277 3.65625 10.198267 4.0828119 11 4.75 L 9.53125 6.25 L 8.84375 6.90625 L 9.8125 6.90625 L 14.6875 6.90625 L 15.09375 6.90625 L 15.09375 6.53125 L 15.09375 1.65625 L 15.09375 0.6875 z "/>
</svg>