<svg xmlns="http://www.w3.org/2000/svg" viewBox="0 0 16 16">
    <path d="M 13.820932,9.5965289 C 13.086398,8.3243045 13.528135,6.6939345 14.807385,5.9531333 L 13.431639,3.570237 c -0.393066,0.2304224 -0.850062,0.3625474 -1.337738,0.3625474 -1.470218,0 -2.6620228,-1.1996512 -2.6620228,-2.6795475 h -2.751574 c 0.00367,0.4567762 -0.1103874,0.91987 -0.3548948,1.3432913 -0.7345083,1.27225 -2.3673677,1.7049112 -3.6485042,0.9673912 L 1.3011864,5.9468158 C 1.6972607,6.1720233 2.0401513,6.501732 2.284003,6.9240595 3.0173353,8.1942795 2.5781124,9.8214029 1.3036201,10.563841 l 1.3757465,2.382896 c 0.391699,-0.22827 0.8465073,-0.358942 1.3316406,-0.358942 1.4655699,0 2.6543126,1.192082 2.6619137,2.665442 h 2.7515198 c -0.00114,-0.452182 0.1130938,-0.91014 0.3550041,-1.329152 0.7333052,-1.270202 2.3621722,-1.703432 3.6423782,-0.970864 L 14.79757,10.570342 C 14.404092,10.345222 14.063499,10.016659 13.820932,9.5965289 z M 8.054273,11.087879 c -1.5655396,0 -2.834672,-1.2690741 -2.834672,-2.8346419 0,-1.5655413 1.2691053,-2.8346413 2.834672,-2.8346413 1.5655657,0 2.834616,1.2691 2.834616,2.8346413 -2.7e-5,1.5655678 -1.2690774,2.8346419 -2.834616,2.8346419 z"/>
</svg>