<svg xmlns="http://www.w3.org/2000/svg" viewBox="0 0 16 16">
    <path d="m14.222 7.111h-.963c-.375-2.233-2.137-3.995-4.37-4.37v-.963c0-.491-.398-.889-.889-.889s-.889.398-.889.889v.963c-2.233.375-3.995 2.137-4.37 4.37h-.963c-.491 0-.889.398-.889.889s.398.889.889.889h.963c.375 2.233 2.137 3.995 4.37 4.37v.963c0 .491.398.889.889.889s.889-.398.889-.889v-.963c2.233-.375 3.995-2.137 4.37-4.37h.963c.491 0 .889-.398.889-.889s-.398-.889-.889-.889m-5.333 4.332v-.776c0-.491-.398-.889-.889-.889s-.889.398-.889.889v.776c-1.248-.322-2.232-1.307-2.554-2.554h.776c.491 0 .889-.398.889-.889s-.398-.889-.889-.889h-.776c.322-1.248 1.307-2.232 2.554-2.554v.776c0 .491.398.889.889.889s.889-.398.889-.889v-.776c1.248.322 2.232 1.307 2.554 2.554h-.776c-.491 0-.889.398-.889.889s.398.889.889.889h.776c-.322 1.248-1.307 2.232-2.554 2.554" />
</svg>