<svg xmlns="http://www.w3.org/2000/svg" viewBox="0 0 32 32">
    <path d="m.025 27.18c-.008-.079-.014-.158-.018-.238.004.08.011.159.018.238m7.347-9.516c2.875.086 4.804-2.897 4.308-6.662s-3.231-6.787-6.106-6.873c-2.876-.085-4.804 2.796-4.308 6.562.496 3.765 3.23 6.887 6.106 6.973m24.628-9.661v-2.666c0-2.934-2.399-5.334-5.333-5.334h-21.333c-2.884 0-5.25 2.32-5.33 5.185 1.824-1.606 4.354-2.947 6.965-2.947 2.791 0 11.164 0 11.164 0l-2.498 2.113h-3.54c2.348.9 3.599 3.629 3.599 6.429 0 2.351-1.307 4.374-3.153 5.812-1.801 1.403-2.143 1.991-2.143 3.184 0 1.018 1.93 2.75 2.938 3.462 2.949 2.079 3.904 4.01 3.904 7.233 0 .513-.064 1.026-.19 1.53h9.617c2.934 0 5.333-2.398 5.333-5.334v-16.666h-6v6h-2v-6h-6v-2h6v-6h2v6h6m-26.19 15.935c.675 0 1.294-.018 1.936-.018-.848-.823-1.52-1.831-1.52-3.074 0-.738.236-1.448.567-2.079-.337.024-.681.031-1.035.031-2.324 0-4.297-.752-5.756-1.995v2.101 6.304c1.67-.793 3.653-1.269 5.809-1.269m-5.703 3.79c-.035-.171-.061-.344-.079-.52.018.176.045.349.079.52m14.13 2.049c-.471-1.838-2.139-2.749-4.465-4.361-.846-.273-1.778-.434-2.778-.444-2.801-.03-5.41 1.092-6.882 2.762.498 2.428 2.657 4.267 5.226 4.267h8.951c.057-.348.084-.707.084-1.076 0-.392-.048-.775-.137-1.148z" />
</svg>