<svg xmlns="http://www.w3.org/2000/svg" viewBox="0 0 32 32">
    <path d="m26.667 0h-21.334c-2.945 0-5.333 2.388-5.333 5.334v21.332c0 2.946 2.387 5.334 5.333 5.334h21.334c2.945 0 5.333-2.388 5.333-5.334v-21.332c0-2.946-2.387-5.334-5.333-5.334m-8.752 25.13c-1.621 0-3.145-.842-3.667-1.837 0 0-.802 3.055-.997 3.803-.361 1.39-1.336 3.132-1.989 4.195l-1.093-.387c-.14-1.266-.266-3.208.055-4.59.291-1.249 1.876-7.953 1.876-7.953s-.479-.958-.479-2.375c0-2.225 1.29-3.886 2.895-3.886 1.365 0 2.025 1.025 2.025 2.254 0 1.373-.874 3.425-1.325 5.327-.377 1.593.799 2.892 2.369 2.892 2.844 0 5.03-2.999 5.03-7.327 0-3.831-2.753-6.509-6.683-6.509-4.552 0-7.225 3.415-7.225 6.943 0 1.375.53 2.85 1.191 3.651.131.158.15.297.111.459-.121.506-.391 1.593-.444 1.815-.07.293-.232.355-.535.214-1.998-.93-3.248-3.852-3.248-6.198 0-5.05 3.667-9.682 10.572-9.682 5.55 0 9.864 3.955 9.864 9.241 0 5.514-3.477 9.952-8.302 9.952z" />
</svg>