<svg xmlns="http://www.w3.org/2000/svg" viewBox="0 0 32 32">
    <path d="m26.667 0h-21.333c-2.934 0-5.334 2.4-5.334 5.334v21.332c0 2.936 2.4 5.334 5.334 5.334h21.333c2.934 0 5.333-2.398 5.333-5.334v-21.332c0-2.934-2.399-5.334-5.333-5.334m-2.715 11.921c.008.176.012.353.012.531 0 5.422-4.127 11.675-11.675 11.675-2.317 0-4.474-.679-6.29-1.844.321.038.648.058.979.058 1.922 0 3.692-.656 5.096-1.757-1.796-.033-3.311-1.219-3.833-2.849.251.048.508.074.772.074.374 0 .737-.05 1.081-.144-1.877-.377-3.291-2.035-3.291-4.02 0-.017 0-.034 0-.052.553.307 1.186.492 1.858.513-1.101-.736-1.825-1.992-1.825-3.415 0-.752.202-1.457.556-2.063 2.024 2.482 5.05 4.116 8.457 4.287-.07-.3-.106-.614-.106-.935 0-2.266 1.837-4.103 4.103-4.103 1.18 0 2.247.498 2.995 1.296.935-.184 1.813-.525 2.606-.996-.306.958-.957 1.762-1.804 2.27.83-.099 1.621-.32 2.357-.646-.55.823-1.245 1.545-2.047 2.124z" />
</svg>