<svg xmlns="http://www.w3.org/2000/svg" viewBox="0 0 32 32">
    <path d="m26.666 0h-21.332c-2.934 0-5.334 2.401-5.334 5.334v21.332c0 2.936 2.4 5.334 5.334 5.334h21.332c2.934 0 5.334-2.398 5.334-5.334v-21.332c0-2.934-2.4-5.334-5.334-5.334m-1.264 13.691c-1.061 5.978-6.991 11.04-8.774 12.197s-3.411-.463-4-1.687c-.675-1.397-2.7-8.967-3.23-9.594-.53-.626-2.121.627-2.121.627l-.772-1.012c0 0 3.231-3.858 5.689-4.34 2.606-.511 2.603 4 3.229 6.508.606 2.424 1.014 3.811 1.543 3.811.53 0 1.543-1.352 2.652-3.424 1.111-2.074-.048-3.907-2.218-2.603.868-5.208 9.06-6.46 8-.483" />
</svg>