<?xml version="1.0" encoding="utf-8"?>
<!-- Generated by IcoMoon.io -->
<!DOCTYPE svg PUBLIC "-//W3C//DTD SVG 1.1//EN" "http://www.w3.org/Graphics/SVG/1.1/DTD/svg11.dtd">
<svg version="1.1" xmlns="http://www.w3.org/2000/svg" xmlns:xlink="http://www.w3.org/1999/xlink" width="32" height="32" viewBox="0 0 32 32">
<path fill="#000000" d="M9.162 0l-2.162 4.289-2.162-4.289h-2.758l3.897 6.791 0.023-0.013v5.222h2v-5.222l0.023 0.013 3.897-6.791z"></path>
<path fill="#000000" d="M15 4c0.542 0 1 0.458 1 1v4c0 0.542-0.458 1-1 1s-1-0.458-1-1v-4c0-0.542 0.458-1 1-1zM15 2c-1.65 0-3 1.35-3 3v4c0 1.65 1.35 3 3 3s3-1.35 3-3v-4c0-1.65-1.35-3-3-3v0z"></path>
<path fill="#000000" d="M24 2v7.874c-0.873 0.728-2 1.167-2-1.426v-6.448h-2v6.854h0.003c0.031 1.653 0.379 4.63 3.997 2.21v0.936h2v-10h-2z"></path>
<path fill="#000000" d="M27 22c-0.551 0-1 0.449-1 1v1h2v-1c0-0.551-0.449-1-1-1z"></path>
<path fill="#000000" d="M18 23v5.25c0.677 0.677 2 0.75 2-0.25s0-3.688 0-4.688-1-1.313-2-0.313z"></path>
<path fill="#000000" d="M31.836 18.173c-0.087-1.152-0.501-2.092-1.243-2.82s-1.69-1.125-2.846-1.19c-2.181-0.109-7.17-0.163-11.554-0.163s-9.728 0.054-11.909 0.163c-1.156 0.065-2.104 0.462-2.846 1.19s-1.156 1.668-1.243 2.82c-0.131 2.347-0.196 3.198-0.196 4.372s0.065 2.934 0.196 5.282c0.087 1.152 0.502 2.092 1.243 2.82s1.69 1.125 2.846 1.19c2.181 0.109 7.525 0.163 11.909 0.163s9.373-0.054 11.554-0.163c1.156-0.065 2.104-0.462 2.846-1.19s1.156-1.668 1.243-2.82c0.109-1.956 0.164-3.717 0.164-5.282s-0.055-2.416-0.164-4.372zM6 30h-2v-10h-2v-2h6v2h-2v10zM14 30h-2v-0.936c-3.802 2.134-3.966 0.069-3.997-1.585h-0.003v-5.479h2v5.51c0 1.208 1.127 1.091 2 0.364v-5.874h2v8zM22 27.971c0 2.090-2.141 2.7-4 1.075v0.954h-2v-12h2v3.25c2-2 4-1.25 4 0.75s0 3.787 0 5.971zM30 24v1h-4v2c0 0.551 0.449 1 1 1s1-0.449 1-1v-1h2v1c0 1.654-1.346 3-3 3s-3-1.346-3-3v-4c0-1.654 1.346-3 3-3s3 1.346 3 3v1z"></path>
</svg>
