<svg enable-background="new 0 0 512 512" viewBox="0 0 512 512" xmlns="http://www.w3.org/2000/svg" xmlns:xlink="http://www.w3.org/1999/xlink">
    <linearGradient id="a" gradientUnits="userSpaceOnUse" x1="74.968" x2="413.57" y1="437.03" y2="98.43">
        <stop offset="0" />
        <stop offset=".693" stop-color="#3d3d3d" />
        <stop offset="1" stop-color="#595959" />
    </linearGradient>
    <linearGradient id="b" gradientUnits="userSpaceOnUse" x1="126.09" x2="333.31">
        <stop offset="0" stop-color="#fff" />
        <stop offset="1" stop-color="#fff" />
    </linearGradient>
    <linearGradient id="c" gradientUnits="userSpaceOnUse" x1="122.08" x2="257.52" xlink:href="#b" />
    <linearGradient id="d" gradientUnits="userSpaceOnUse" x1="334.67" x2="405.99" xlink:href="#b" />
    <linearGradient id="e" gradientUnits="userSpaceOnUse" x1="117.99" x2="378.54" xlink:href="#b" />
    <linearGradient id="f" gradientUnits="userSpaceOnUse" x1="193.23" x2="266.68" xlink:href="#b" />
    <path d="m61.775 89.23c53.34-62.09 129.97-92.37 205.84-88.97 55.19 2.469 66.65 73.22 111.81 112 45.19 38.812 116.84 39.437 127.62 93.62 14.812 74.5-3.531 154.81-56.812 216.87-92.12 107.31-253.74 119.56-361.02 27.469-107.25-92.12-119.53-253.75-27.437-360.99" fill="url(#a)" />
    <g stroke="#fff" stroke-width=".25">
        <path d="m333.29 226.75c.906-1.062-20.609-14-57.05-19.968-18.14-3.25-39.671-4.281-62.749-3.344-22.906 1.562-47.984 4.781-71.2 14.687-3.078 1.312-6.03 2.812-8.828 4.906-2.719 2.125-5.688 4.719-6.938 9.281-1.453 4.281.922 9.844 4.109 12.12 2.953 2.625 6.578 3.969 9.375 4.906 11.703 4.312 23.765 7.125 35.3 9.281 23.17 4.562 45.36 6.499 64.59 7.312 19.2.875 35.827-.031 47.702-1.125 12.53-.969 19.531-3.187 21.19-3.374 12.266-2.812 20.938-9.281 19.578-12.844-1.344-3.656-11.234-3.375-22.687-.781-1.345.156-8.532 2.562-19.5 3.719-11.531 1.469-27.19 2.812-46.01 2.625-18.797-.094-40.5-1.219-63.23-4.906-11.469-1.719-22.968-4-34.28-7.719-5.734-1.594-9.765-4.312-8.765-7.469.672-3.406 6.187-7.312 11.14-9.531 21.937-10.281 46.19-14.343 68.78-16.687 22.703-1.719 44.12-1.5 62.08 1.094 18.08 2.468 32.749 6.53 42.702 10.187 10.346 2.906 14.596 7.937 14.705 7.625z" fill="url(#b)" />
        <path d="m257.52 384.88c0-.156-11.641-.375-29.12-2.719-17.281-2.188-41.34-8.406-60.41-24.405-19.328-15.469-31.406-38.719-37.34-56.4-3.156-8.938-5.234-16.719-6.609-22.375-1.547-6.188-1.703-9.812-1.875-10.469-.5-5.53 1.328-9.687 4.906-11.187 3.531-1.562 8.344 3.406 8.859 9.593.156.812.156 4.375 1.093 9.312.938 5.469 2.375 12.875 4.781 21.5 2.422 8.656 5.578 18.375 10.656 27.937 5.02 9.531 11.765 19 20.09 26.844 16.578 16.188 39.23 24.03 56.25 27.499 17.13 3.625 28.752 4.75 28.72 4.875z" fill="url(#c)" />
        <path d="m346.29 303.16c-.062-.062 8.484-7.188 20.53-18.625 11.734-11.312 27.594-28.687 30.828-50.19 1.75-10.438.016-21.5-6.172-27.749-2.875-3-7.125-5.281-10.812-6.188-3.812-1.031-7.812-.906-11.391-.281-7.312 1.312-12.921 4.688-16.187 7.531-2.625 2.375-4.453 5.468-4.75 5.812-2.812 4-7.719 6.438-11 4.406-3.234-1.969-3.781-7.468-.219-12.562.625-.656 2.203-3.656 7.812-8.156 5.109-3.812 12.875-7.719 22.812-8.719 9.812-1.156 22.688 1.875 30.859 11.875 8.281 10.156 8.609 24.03 5.828 35.405-5.656 23.781-23.609 39.937-36.17 50.44-13.01 10.532-22.03 16.876-21.966 17z" fill="url(#d)" />
        <path d="m135.59 324.66c.125.125-4.281 2.25-9.922 8.625-2.703 3.188-5.484 7.719-6.859 13.562-1.406 5.812-1.078 12.906 1.734 19.812 5.516 13.937 19.375 25.874 35.37 34.34 16.03 8.938 34.952 14.938 54.33 18.09 19.375 3.125 39.19 3.531 57.78 2.062 18.75-1.625 35.858-5.844 50.39-10.25 29.422-9.625 47.37-22.09 49.48-23.406 8.156-5.625 12.359-13.06 9.984-16.06-2.406-3.03-10.188-.655-17.78 4.531-1.781 1.156-18.234 13.531-45.28 23.75-13.844 4.812-30.14 9.625-47.779 11.938-17.797 2.25-36.984 2.719-55.843.5-18.859-2.156-37.39-7.156-53.25-15.09-16.05-7.531-29.515-18.25-35.406-31.28-6.203-13.03-1.516-25.938 3.609-32.12 5.235-6.469 9.595-8.906 9.438-9z" fill="url(#e)" />
        <path d="m221.79 175.41c-.125-.125 9.531-7.125 23.515-18.16 3.281-2.999 7.469-5.78 10.766-9.374 3.375-3.406 6.219-8.219 6.219-12.938-.031-4.656-3.656-8.938-7.922-12.375-4.406-3.438-9.516-6.312-14.781-9-10.547-5.594-21.734-10.09-31.796-17.09-4.953-3.531-9.844-7.844-12.719-14.12-2.938-6.5-2.02-13.844.422-19.12 5.281-10.844 13.344-15.374 18.406-18.812 5.359-3.25 8.843-4.75 9.546-5.125 5.75-2.531 11.516-1.188 12.766 2.438 1.234 3.656-2.156 8.094-7.234 10.312-.609.344-3.828 1.531-8.5 3.969-4.5 2.406-11.11 6.25-14.468 12.312-1.578 3.062-2.344 6.531-1.094 9.938 1.219 3.531 4.469 7.281 8.562 10.594 8.234 6.719 19.19 12.25 29.5 18.624 5.203 3.188 10.406 6.562 15.05 10.812 4.438 4.094 9.02 9.844 8.641 16.781-.578 6.75-4.406 11.562-8.344 15.16-4 3.719-8.156 5.969-11.688 8.749-14.875 10.09-24.922 16.282-24.843 16.438z" fill="url(#f)" />
    </g>
</svg>