<svg xmlns="http://www.w3.org/2000/svg" viewBox="0 0 256 256">
    <path d="m79.16 140.51l-67.823-36.592 75.23 14.359-7.407 22.23z" />
    <path d="m89.58 112.72l-41.2-67.63 57.87 53.731-16.666 13.896z" />
    <path d="m134.02 93.26l-18.518-76.43-2.778 78.74 21.296-2.316z" />
    <path d="m141.66 94.42l43.664-65.24-24.682 75.2-18.981-9.959z" />
    <path d="m177.54 130.32l-11.11-19.917 68.45-31.18-57.34 51.1z" />
    <path d="m253.55 146.96c-72.64-12.379-250.16.231-248.5 36.601.83 28.745 113.32 35.822 179.47 35.04-62.6-5.236-109.65-15.215-110.44-32.707.848-30.655 82.17-35.725 179.47-38.937z" />
</svg>