<svg viewBox="0 0 512 512" xmlns="http://www.w3.org/2000/svg" enable-background="new 0 0 512 512">
    <path d="m231.29 142.31c-4.52.482-2.96 4.64-5.476 4.73-2.478.091-1.973-5.294 5.476-4.73m13.626.686c4.399-1.13 4.422 3.299 6.824 2.493 2.335-.783-.037-5.627-6.824-2.493m151.6 290.09c-13.588 6.832-31.31 22.01-37.94 28.3-4.873 4.663-25.293 6.976-36.637 1.138-13.445-6.922-6.312-17.724-27.07-18.235-10.318-.241-20.352-.332-30.407-.211-8.896.12-17.784.392-26.853.866-31.17.271-34.22 20.653-54.07 19.907-13.589-.504-30.739-11.223-60.19-17.392-20.698-4.309-40.569-5.333-44.825-14.492-4.249-9.129 5.243-19.366 5.875-28.465.775-11.863-8.986-27.997-1.771-34.25 5.958-5.176 19.01-1.379 27.426-6.079 8.948-4.964 12.541-9.1 12.541-19.998 3.292 11.133-.15 20.359-7.547 24.879-4.399 2.659-12.579 4.067-19.305 3.382-5.326-.504-8.625.361-10.244 2.389-2.064 2.636-1.401 7.246 1.197 13.385 2.614 6.139 5.755 10.03 5.333 17.543-.422 7.517-8.685 16.442-7.366 22.762.512 2.426 2.899 4.452 8.624 6.071 9.491 2.667 26.431 5.085 43.15 9.159 18.582 4.558 37.767 13.145 49.69 11.495 35.651-4.964 15.321-43.2 9.552-52.29-30.09-47.37-49.992-78.38-65.923-66.07-4.158 3.201-4.316-8.06-4.135-12.398.686-15.569 8.595-21.02 13.295-33.13 8.798-22.695 15.659-48.689 29.27-62.13 10.131-12.963 25.934-34.3 28.962-45.563-2.546-24.487-3.329-50.26-3.722-72.837-.384-24.01 3.42-45.08 30.537-59.814 6.613-3.593 15.207-4.911 24.314-5 16.284-.181 34.24 4.376 45.713 12.88 18.289 13.558 29.783 42.41 28.442 63.17-1.085 15.976 1.793 32.72 6.915 49.932 6.131 20.442 15.833 34.814 31.24 51.16 18.574 19.697 33.03 58.5 37.1 83.08 3.834 22.959-1.16 37.15-6.199 37.865-7.502 1.107-12.18 24.939-35.681 23.832-14.997-.723-16.466-9.581-20.623-17.13-6.682-12.07-13.476-8.293-16.203 4.286-1.408 6.432-.384 15.659 1.68 22.838 4.188 14.703 2.75 28.652.249 45.562-4.798 32.457 22.68 38.596 41.22 23.17 18.289-15.23 22.21-17.656 45.35-25.557 34.904-11.954 23.18-22.522 4.406-28.834-16.827-5.657-17.52-34.09-11.494-39.455 1.341 30.536 17.234 34.965 23.976 39.13 28.876 17.924-10.91 32.627-27.842 41.15m-77.73-89.45c3.178-3.773 6.922-4.195 11.855-4.286.753-18.612 29.73-17.241 39.22-9.453 0-4.315-9.106-8.18-12.752-10 6.319-21.01 3.352-29.459-.836-49.31-3.179-15.15-16.979-35.53-27.787-41.909 2.727 2.387 7.909 9.34 13.385 19.538 9.431 17.558 18.74 43.507 12.541 65.3-2.387 8.323-7.841 9.371-11.584 9.792-16.617 1.732-6.848-19.637-13.747-49.07-7.683-32.721-15.562-35.18-17.542-37.744-9.521-42.573-20.11-38.32-23.11-54.4-2.689-14.222 12.397-25.986-8.113-29.964-6.252-1.228-15.199-7.57-18.77-8.02-3.533-.482-5.266-23.471 7.697-24.405 12.963-.957 15.441 14.643 12.896 20.782-3.684 6.079.271 8.353 6.681 6.373 5.243-1.612 1.861-15.269 3.111-17.294-3.382-19.554-11.547-22.371-20.05-24.01-32.28 2.478-17.784 38.23-21.05 34.784-4.572-4.851-18.319-.271-18.251-3.382.294-18.229-5.815-28.796-14.229-29.02-9.37-.271-13.234 12.851-13.8 20.239-.535 7.096 4.219 21.882 7.69 20.752 2.275-.753 6.169-5.325 2-5.303-2.154.03-5.408-5.02-5.747-11.171-.324-6.131 1.921-12.3 9.883-11.976 9.34.362 9.249 18.605 8.232 19.313-2.99 2.071-6.824 6.086-7.238 6.771-2.968 4.972-8.926 6.199-11.11 8.384-4.158 4.157-5 8.857-1.884 10.658 10.682 6.131 7.209 12.955 22.15 13.588 9.814.385 17.204-1.529 23.885-3.57 5.205-1.574 21.919-5.137 25.444-11.275 1.529-2.606 3.45-2.697 4.73-1.951 2.244 1.295 2.727 5.634-3.051 7.186-8.263 2.245-16.609 6.651-23.923 9.581-7.299 2.96-9.634 4.098-16.519 5.363-15.517 2.779-26.973-5.604-16.563 4.459 3.45 3.353 6.771 5.446 15.697 5.085 19.547-.776 41.45-24.25 43.612-13.739.452 2.154-6.191 5.084-11.373 7.66-18.326 9.02-31.23 26.823-42.965 20.661-10.5-5.536-20.947-31.583-20.767-19.915.294 17.994-23.72 34.01-12.67 54.49-7.155 1.95-23.471 36.37-25.813 54.3-1.28 10.153.973 22.906-1.461 30.03-3.533 10.297-19.576-9.815-14.455-34.461.92-4.339.144-5.258-1.017-3.164-6.522 11.525-2.938 27.6 2.207 38.883 2.253 4.881 7.518 7.04 11.411 11.381 8.406 9.4 40.57 33.26 46.4 38.973 7.06 6.944 5.084 22.875-9.936 24.397 7.698 14.522 15.2 15.9 15.09 39.643 8.708-4.678 5.205-14.907 1.56-21.648-2.546-4.609-5.875-6.703-5.152-7.78.543-.813 5.02-4.67 7.721-1.65 7.932 8.889 22.906 10.479 39.01 8.475 16.07-2.041 33.32-7.66 41.28-20.473 3.736-6.02 6.433-8.15 8.165-7.096 1.71 1.077 2.456 5.325 2.274 12.149-.203 7.577-3.374 15.448-5.348 21.738-2.223 7.126-2.907 12.18 4.04 12.451 2.064-13.175 5.688-26.14 6.734-39.24 1.171-14.91-9.63-42.666 2.01-56.5m-98.52-211.69c-.535 2.938-.324 4.768 1.71 4.768.331 0 .685-.068.813-.813.979-5.838-2.041-10.09-3.27-10.425-2.869-.716-2.508 3.382-1.017 3.058.904-.182 2.125 1.317 1.764 3.412m53.06-8.02c-2.938.271-2.094 1.732-.633 2.154 1.913.572 3.714 3.826 4.128 7.367.03.324 2.455-.512 2.455-1.288.182-5.665-4.67-8.347-5.95-8.233" />
</svg>