<svg xmlns="http://www.w3.org/2000/svg" viewBox="0 0 32 32">
    <path d="m9.162 0l-2.162 4.289-2.162-4.289h-2.758l3.897 6.791.023-.013v5.222h2v-5.222l.023.013 3.897-6.791z" />
    <path d="m15 4c.542 0 1 .458 1 1v4c0 .542-.458 1-1 1s-1-.458-1-1v-4c0-.542.458-1 1-1m0-2c-1.65 0-3 1.35-3 3v4c0 1.65 1.35 3 3 3s3-1.35 3-3v-4c0-1.65-1.35-3-3-3" />
    <path d="m24 2v7.874c-.873.728-2 1.167-2-1.426v-6.448h-2v6.854h.003c.031 1.653.379 4.63 3.997 2.21v.936h2v-10h-2" />
    <path d="m27 22c-.551 0-1 .449-1 1v1h2v-1c0-.551-.449-1-1-1" />
    <path d="m18 23v5.25c.677.677 2 .75 2-.25s0-3.688 0-4.688-1-1.313-2-.313" />
    <path d="m31.836 18.17c-.087-1.152-.501-2.092-1.243-2.82s-1.69-1.125-2.846-1.19c-2.181-.109-7.17-.163-11.554-.163s-9.728.054-11.909.163c-1.156.065-2.104.462-2.846 1.19s-1.156 1.668-1.243 2.82c-.131 2.347-.196 3.198-.196 4.372s.065 2.934.196 5.282c.087 1.152.502 2.092 1.243 2.82s1.69 1.125 2.846 1.19c2.181.109 7.525.163 11.909.163s9.373-.054 11.554-.163c1.156-.065 2.104-.462 2.846-1.19s1.156-1.668 1.243-2.82c.109-1.956.164-3.717.164-5.282s-.055-2.416-.164-4.372m-25.836 11.827h-2v-10h-2v-2h6v2h-2v10m8 0h-2v-.936c-3.802 2.134-3.966.069-3.997-1.585h-.003v-5.479h2v5.51c0 1.208 1.127 1.091 2 .364v-5.874h2v8m8-2.029c0 2.09-2.141 2.7-4 1.075v.954h-2v-12h2v3.25c2-2 4-1.25 4 .75s0 3.787 0 5.971m8-3.971v1h-4v2c0 .551.449 1 1 1s1-.449 1-1v-1h2v1c0 1.654-1.346 3-3 3s-3-1.346-3-3v-4c0-1.654 1.346-3 3-3s3 1.346 3 3v1" />
</svg>