<svg xmlns="http://www.w3.org/2000/svg" width="579.5" height="579.5" viewBox="0 0 579.496 579.496" enable-background="new 0 0 579.496 579.496">
    <path d="m565.41 199.96c-.869-3.237-3.02-5.385-6.475-6.469l-94.48-31.05v-99.02c0-3.452-1.407-6.242-4.211-8.415-3.237-2.148-6.364-2.577-9.382-1.292l-94.48 30.411-58.24-80.23c-1.928-2.595-4.737-3.892-8.403-3.892-3.672 0-6.469 1.303-8.415 3.892l-58.24 80.23-94.48-30.411c-3.02-1.291-6.145-.856-9.382 1.292-2.803 2.173-4.204 4.969-4.204 8.415v99.02l-94.48 31.05c-3.452 1.089-5.612 3.237-6.475 6.469-1.083 3.464-.643 6.585 1.292 9.388l58.24 80.23-58.24 80.25c-1.94 2.589-2.375 5.723-1.292 9.388.863 3.238 3.02 5.398 6.475 6.47l94.48 31.05v99.02c0 3.451 1.401 6.242 4.205 8.402 3.237 2.16 6.365 2.589 9.382 1.304l94.48-30.423 58.24 80.25c2.154 2.803 4.963 4.21 8.415 4.21 3.446 0 6.255-1.401 8.416-4.21l58.24-80.25 94.48 30.423c3.02 1.291 6.145.856 9.382-1.304 2.803-2.16 4.211-4.957 4.211-8.402v-99.02l94.48-31.05c3.445-1.077 5.605-3.237 6.475-6.469 1.077-3.666.643-6.8-1.291-9.389l-58.24-80.25 58.24-80.23c1.923-2.808 2.35-5.93 1.273-9.394m-104.02 161.94c-9.816 22.981-23.08 42.822-39.798 59.53-16.714 16.732-36.562 29.994-59.54 39.799-22.974 9.822-47.07 14.725-72.31 14.725-25.24 0-49.34-4.902-72.31-14.725-22.975-9.811-42.822-23.07-59.53-39.799-16.714-16.707-29.982-36.555-39.798-59.53-9.817-22.974-14.719-47.08-14.719-72.32 0-25.23 4.902-49.34 14.719-72.31 9.816-22.98 23.08-42.809 39.798-59.54 16.713-16.708 36.561-29.982 59.53-39.786 22.968-9.81 47.08-14.725 72.31-14.725 25.24 0 49.34 4.915 72.31 14.725 22.969 9.811 42.816 23.08 59.54 39.786 16.713 16.732 29.981 36.567 39.798 59.54 9.816 22.962 14.725 47.08 14.725 72.31-.0001 25.24-4.915 49.35-14.725 72.32" />
    <circle cx="289.74" cy="289.75" r="157.77" />
</svg>