<svg xmlns="http://www.w3.org/2000/svg" viewBox="0 0 16 16">
    <path fill="#444" d="m11.39 8c2.152-1.365 3.61-3.988 3.61-7 0-.339-.019-.672-.054-1h-13.891c-.036.328-.054.661-.054 1 0 3.01 1.457 5.635 3.609 7-2.152 1.365-3.609 3.988-3.609 7 0 .339.019.672.054 1h13.891c.036-.328.054-.661.054-1 0-3.01-1.457-5.635-3.609-7m-8.891 7c0-2.921 1.253-5.397 3.5-6.214v-1.572c-2.247-.817-3.5-3.294-3.5-6.214h11c0 2.921-1.253 5.397-3.5 6.214v1.572c2.247.817 3.5 3.294 3.5 6.214h-11m7.182-4.538c-1.12-.635-1.181-1.459-1.182-1.959v-1c0-.5.059-1.327 1.184-1.963.602-.349 1.122-.88 1.516-1.537h-6.4c.395.657.916 1.188 1.518 1.538 1.12.635 1.181 1.459 1.182 1.959v1c0 .5-.059 1.327-1.184 1.963-1.135.659-1.98 1.964-2.236 3.537h7.839c-.256-1.574-1.102-2.879-2.238-3.538z" />
</svg>