<svg xmlns="http://www.w3.org/2000/svg" viewBox="0 0 16 16">
    <path d="m 8 4.736 c -.515 0 -.933 -.418 -.933 -.933 v -2.798 c 0 -.515 .418 -.933 .933 -.933 s .933 .418 .933 .933 v 2.798 c 0 .515 -.418 .933 -.933 .933 z" />
    <path d="m 8 15.577 c -.322 0 -.583 -.261 -.583 -.583 v -2.798 c 0 -.322 .261 -.583 .583 -.583 s .583 .261 .583 .583 v 2.798 c 0 .322 -.261 .583 -.583 .583 z" />
    <path d="m 5.902 5.24 c -.302 0 -.596 -.157 -.758 -.437 l -1.399 -2.423 c -.241 -.418 -.098 -.953 .32 -1.194 s .953 -.098 1.194 .32 l 1.399 2.423 c .241 .418 .098 .953 -.32 1.194 c -.138 .079 -.288 .117 -.436 .117 z" />
    <path d="m 11.498 14.582 c -.181 0 -.358 -.094 -.455 -.262 l -1.399 -2.423 c -.145 -.251 -.059 -.572 .192 -.717 s .572 -.059 .717 .192 l 1.399 2.423 c .145 .251 .059 .572 -.192 .717 c -.083 .048 -.173 .07 -.262 .07 z" />
    <path d="m 4.365 6.718 c -.138 0 -.279 -.035 -.407 -.109 l -2.423 -1.399 c -.39 -.225 -.524 -.724 -.299 -1.115 s .724 -.524 1.115 -.299 l 2.423 1.399 c .39 .225 .524 .724 .299 1.115 c -.151 .262 -.425 .408 -.707 .408 z" />
    <path d="m 14.057 11.964 c -.079 0 -.159 -.02 -.233 -.063 l -2.423 -1.399 c -.223 -.129 -.299 -.414 -.171 -.637 s .414 -.299 .637 -.171 l 2.423 1.399 c .223 .129 .299 .414 .171 .637 c -.086 .15 -.243 .233 -.404 .233 z" />
    <path d="m 3.803 8.758 h -2.798 c -.418 0 -.758 -.339 -.758 -.758 s .339 -.758 .758 -.758 h 2.798 c .419 0 .758 .339 .758 .758 s -.339 .758 -.758 .758 z" />
    <path d="m 14.995 8.466 c 0 0 0 0 0 0 h -2.798 c -.258 0 -.466 -.209 -.466 -.466 s .209 -.466 .466 -.466 c 0 0 0 0 0 0 h 2.798 c .258 0 .466 .209 .466 .466 s -.209 .466 -.466 .466 z" />
    <path d="m 1.943 12.197 c -.242 0 -.477 -.125 -.606 -.35 c -.193 -.335 -.079 -.762 .256 -.955 l 2.423 -1.399 c .335 -.193 .762 -.079 .955 .256 s .079 .762 -.256 .955 l -2.423 1.399 c -.11 .064 -.23 .094 -.349 .094 z" />
    <path d="m 11.635 6.368 c -.161 0 -.318 -.084 -.404 -.233 c -.129 -.223 -.052 -.508 .171 -.637 l 2.423 -1.399 c .223 -.129 .508 -.052 .637 .171 s .052 .508 -.171 .637 l -2.423 1.399 c -.073 .042 -.154 .063 -.233 .063 z" />
    <path d="m 4.502 14.699 c -.109 0 -.219 -.028 -.32 -.086 c -.307 -.177 -.412 -.569 -.235 -.876 l 1.399 -2.423 c .177 -.307 .569 -.412 .876 -.235 s .412 .569 .235 .876 l -1.399 2.423 c -.119 .206 -.334 .321 -.556 .321 z" />
    <path d="m 10.098 4.832 c -.079 0 -.159 -.02 -.233 -.063 c -.223 -.129 -.299 -.414 -.171 -.637 l 1.399 -2.423 c .129 -.223 .414 -.299 .637 -.171 s .299 .414 .171 .637 l -1.399 2.423 c -.086 .15 -.243 .233 -.404 .233 z" />
</svg>