<svg xmlns="http://www.w3.org/2000/svg" viewBox="0 0 32 32">
    <path d="m32 18v-2h-6.04c-.183-2.271-.993-4.345-2.24-6.01h5.061l2.189-8.758-1.94-.485-1.811 7.242h-5.459c-.028-.022-.056-.043-.084-.064.21-.609.324-1.263.324-1.944 0-3.305-2.686-5.984-6-5.984s-6 2.679-6 5.984c0 .68.114 1.334.324 1.944-.028.021-.056.043-.084.064h-5.459l-1.811-7.242-1.94.485 2.189 8.758h5.061c-1.246 1.663-2.056 3.736-2.24 6.01h-6.04v2h6.04c.119 1.427.485 2.775 1.051 3.992h-3.875l-2.189 8.757 1.94.485 1.811-7.243h3.511c1.834 2.439 4.606 3.992 7.708 3.992s5.874-1.554 7.708-3.992h3.511l1.811 7.243 1.94-.485-2.189-8.757h-3.875c.567-1.217.932-2.565 1.051-3.992h6.04" />
</svg>