<svg xmlns="http://www.w3.org/2000/svg" viewBox="0 0 32 32">
    <path d="m31.604 4.203c-3.461-2.623-8.787-4.189-14.247-4.189-6.754 0-12.257 2.358-15.1 6.469-1.335 1.931-2.073 4.217-2.194 6.796-.108 2.296.278 4.835 1.146 7.567 2.965-8.887 11.244-15.847 20.79-15.847 0 0-8.932 2.351-14.548 9.631-.003.004-.078.097-.207.272-1.128 1.509-2.111 3.224-2.846 5.166-1.246 2.963-2.4 7.03-2.4 11.931h4c0 0-.607-3.819.449-8.212 1.747.236 3.308.353 4.714.353 3.677 0 6.293-.796 8.231-2.504 1.736-1.531 2.694-3.587 3.707-5.764 1.548-3.325 3.302-7.094 8.395-10.01.292-.167.48-.468.502-.804s-.126-.659-.394-.862z" />
</svg>